<svg width="81" height="66" viewBox="0 0 81 66" fill="none" xmlns="http://www.w3.org/2000/svg">
  <path
    d="M21.1595 63.9352C18.5409 65.1108 13.4765 66.9814 10.8906 64.7409C9.09343 63.1838 9.19339 59.2577 9.32122 57.1117C9.72716 50.3181 13.5887 43.6177 17.6712 38.3521C22.552 32.0583 29.8569 27.2557 37.8173 26.9871C43.8602 26.7831 49.8133 29.2085 54.5316 32.9892C59.2499 36.7698 62.815 41.8315 65.5532 47.2216C66.8893 49.8517 68.0636 52.6633 68.1085 55.613C68.1527 58.5627 66.8485 61.6906 64.2558 63.0974C62.1771 64.2255 59.6096 64.0929 57.3602 63.362C55.1109 62.6317 53.0839 61.3601 51.0012 60.2389C47.1594 58.1711 42.8967 56.5609 38.5422 56.8254C32.2463 57.2089 26.914 61.3513 21.1595 63.9352Z"
    fill="url(#paint0_linear_1_3931)" />
  <path
    d="M15.1888 30.7398C15.9619 37.1117 11.1213 40.5782 6.17721 35.7878C3.14524 32.8504 0.785067 27.6248 0.362127 23.4233C0.149297 21.3059 0.408365 18.9131 2.00493 17.5062C3.53486 16.1578 5.92698 16.1504 7.7527 17.0595C9.57841 17.9686 10.9173 19.6298 11.9692 21.3773C13.6834 24.2257 14.7883 27.4392 15.1888 30.7398Z"
    fill="url(#paint1_linear_1_3931)" />
  <path
    d="M33.4659 13.5808C34.4845 17.8694 33.2748 24.4882 27.4808 24.0013C20.5451 23.4186 19.7394 11.4505 20.4894 6.51867C20.7702 4.66915 21.4889 2.60409 23.233 1.92821C24.4339 1.46243 25.8326 1.82009 26.8926 2.55241C27.952 3.28406 28.734 4.34549 29.4636 5.40692C31.19 7.92212 32.7607 10.6121 33.4659 13.5808Z"
    fill="url(#paint2_linear_1_3931)" />
  <path
    d="M57.5859 10.776C57.6485 7.93437 57.0147 4.95136 55.1489 2.80742C53.2831 0.663482 49.9852 -0.372108 47.4666 0.94499C44.8522 2.31172 43.89 5.53749 43.4589 8.45523C42.8728 12.4174 41.9269 19.6985 44.8209 23.0365C46.6323 25.126 49.3488 24.0387 51.4261 22.8318C55.5011 20.4628 57.4873 15.2909 57.5859 10.776Z"
    fill="url(#paint3_linear_1_3931)" />
  <path
    d="M74.6463 36.7733C70.5658 40.6219 62.2254 39.4292 62.9618 32.7907C63.4595 28.3002 66.5159 23.6737 69.2861 20.2283C70.9759 18.1272 73.4482 16.0982 76.0804 16.6836C78.1679 17.148 79.604 19.2083 79.9691 21.3156C80.3336 23.4228 79.8351 25.5769 79.2687 27.6393C78.3528 30.9725 77.1615 34.4015 74.6463 36.7733Z"
    fill="url(#paint4_linear_1_3931)" />
  <defs>
    <linearGradient id="paint0_linear_1_3931" x1="38.6847" y1="26.9751" x2="38.6847" y2="65.7894"
      gradientUnits="userSpaceOnUse">
      <stop stop-color="#F87537" />
      <stop offset="1" stop-color="#FBA81F" />
    </linearGradient>
    <linearGradient id="paint1_linear_1_3931" x1="7.78421" y1="16.4277" x2="7.78421" y2="38.0258"
      gradientUnits="userSpaceOnUse">
      <stop stop-color="#F87537" />
      <stop offset="1" stop-color="#FBA81F" />
    </linearGradient>
    <linearGradient id="paint2_linear_1_3931" x1="27.0264" y1="1.71906" x2="27.0264" y2="24.0267"
      gradientUnits="userSpaceOnUse">
      <stop stop-color="#F87537" />
      <stop offset="1" stop-color="#FBA81F" />
    </linearGradient>
    <linearGradient id="paint3_linear_1_3931" x1="50.2101" y1="0.361115" x2="50.2101" y2="24.2152"
      gradientUnits="userSpaceOnUse">
      <stop stop-color="#F87537" />
      <stop offset="1" stop-color="#FBA81F" />
    </linearGradient>
    <linearGradient id="paint4_linear_1_3931" x1="71.5047" y1="16.5814" x2="71.5047" y2="38.9548"
      gradientUnits="userSpaceOnUse">
      <stop stop-color="#F87537" />
      <stop offset="1" stop-color="#FBA81F" />
    </linearGradient>
  </defs>
</svg>