<svg width="78" height="76" viewBox="0 0 78 76" fill="none" xmlns="http://www.w3.org/2000/svg">
<path d="M77.5233 31.889C76.9379 31.369 75.3857 39.0008 75.2965 39.7812C74.8334 43.7967 74.1587 47.8036 73.5898 51.8105C72.4922 59.5812 71.3954 67.3597 70.2978 75.1297C65.9327 75.1297 61.5598 75.1132 57.1875 75.0973C46.9952 75.065 36.7863 75.0319 26.6011 75.1132C20.5947 75.1621 14.5963 75.2512 8.60575 75.4138C8.54893 75.4138 8.41083 74.837 8.2152 73.853C7.07736 68.2768 3.9803 49.5255 3.6063 47.5181C3.08629 44.6972 2.59866 42.1533 1.72046 39.4878C1.38746 38.4959 -0.482582 31.8307 0.379068 31.1647C6.71054 26.2552 11.5798 20.1675 18.017 15.4939C19.9676 14.0799 37.9795 -0.371802 38.9145 0.32658C52.2449 10.2765 65.1279 20.8105 77.5233 31.889Z" fill="url(#paint0_linear_1_3908)"/>
<path d="M65.6496 67.344C65.5762 69.1975 64.3492 70.774 63.1545 72.1967C62.0088 73.5704 60.8702 74.5212 59.1476 74.9931C58.5787 75.1477 57.9854 74.7004 57.4244 74.9607C57.3352 75.0017 57.2539 75.0499 57.1884 75.0988C46.9961 75.0664 36.7872 75.0334 26.602 75.1146C26.3417 74.4076 26.1144 73.692 25.9109 72.9691C25.1959 70.4575 24.732 67.8726 24.545 65.2639C24.3257 62.2647 25.1384 59.4683 25.3333 56.4691C25.6095 52.1853 26.8049 47.9993 26.943 43.6752C27.089 38.9692 20.3101 38.9771 18.7659 35.4658C18.1078 33.9619 18.6358 32.8485 19.2378 31.4992C19.5549 31.9466 20.1886 32.1494 20.7007 31.9545C21.2207 31.7675 21.5782 31.2151 21.53 30.6699C23.3669 32.0926 26.5611 31.7998 28.6986 31.4827C32.21 30.9626 36.4039 31.1173 38.4933 33.9863C40.8013 37.1402 39.4038 41.8951 40.761 45.4956C42.1506 49.186 45.3454 51.8681 47.8973 54.7127C51.067 58.2485 53.9691 61.4915 55.9197 65.9134C56.8058 67.9208 57.4805 70.3108 56.4483 72.2614C58.911 71.8874 61.122 70.1562 62.0649 67.8561C63.0078 65.5559 62.6583 62.7682 61.1709 60.7766C63.3574 62.4589 65.7632 64.5886 65.6496 67.344Z" fill="white"/>
<path d="M35.9887 34.8561C36.4267 35.0668 36.7971 35.4071 37.0625 35.8149C38.2953 37.7101 39.6352 40.0346 38.8484 42.4211C38.6211 43.1094 38.1968 43.7064 37.5933 44.1084C35.4191 45.5591 33.1973 43.6704 32.7183 41.5896C32.2904 39.7326 31.9768 32.9285 35.9887 34.8561Z" fill="url(#paint1_linear_1_3908)"/>
<path d="M29.8306 33.413C28.0793 34.005 28.8158 36.6568 30.6959 36.0656C31.3971 35.8448 31.8315 35.0018 31.6035 34.3027C31.3755 33.6029 30.5276 33.1771 29.8306 33.413Z" fill="url(#paint2_linear_1_3908)"/>
<defs>
<linearGradient id="paint0_linear_1_3908" x1="38.8388" y1="0.302078" x2="38.8388" y2="75.4138" gradientUnits="userSpaceOnUse">
<stop stop-color="#F87537"/>
<stop offset="1" stop-color="#FBA81F"/>
</linearGradient>
<linearGradient id="paint1_linear_1_3908" x1="35.7805" y1="34.5157" x2="35.7805" y2="44.6196" gradientUnits="userSpaceOnUse">
<stop stop-color="#F87537"/>
<stop offset="1" stop-color="#FBA81F"/>
</linearGradient>
<linearGradient id="paint2_linear_1_3908" x1="30.2507" y1="33.3476" x2="30.2507" y2="36.151" gradientUnits="userSpaceOnUse">
<stop stop-color="#F87537"/>
<stop offset="1" stop-color="#FBA81F"/>
</linearGradient>
</defs>
</svg>
