<svg width="102" height="88" viewBox="0 0 102 88" fill="none" xmlns="http://www.w3.org/2000/svg">
  <path
    d="M88.4745 70.033C88.2289 70.4445 87.7 71.3569 86.9937 72.5437C83.9139 77.6833 77.4208 88.0989 75.136 86.9417C66.5149 82.3909 57.0496 79.7817 47.7321 76.8587C46.1527 76.3684 44.5841 75.8683 43.0245 75.3484C31.588 71.5229 22.7124 66.3052 13.8261 58.2919C5.81277 51.0638 -0.86675 43.756 0.889161 31.8687C3.05654 17.166 20.1722 4.76866 34.6391 9.61425C41.6422 11.9582 47.4093 16.9508 52.8134 21.9919C52.0775 13.5663 57.5801 5.16123 65.338 1.80709C70.2912 -0.340574 75.931 -0.507297 81.1387 0.953772C84.0913 1.77752 86.9058 3.13102 89.3779 4.94607C96.2044 9.9477 100.392 18.1187 101.285 26.5336C102.863 41.4128 95.9679 57.547 88.4745 70.033Z"
    fill="url(#paint0_linear_1_3944)" />
  <path
    d="M86.994 72.5439C83.9142 77.6835 77.4211 88.0991 75.1363 86.9419C66.5153 82.3911 57.0499 79.7819 47.7324 76.8589C47.6446 75.9761 47.5559 75.1031 47.4581 74.221C47.2618 72.4068 47.0458 70.5433 46.1933 68.9245C45.3794 67.3846 44.0547 66.1978 42.7604 65.0308C39.4842 62.098 36.5325 59.8714 32.9131 57.5373C30.3236 55.8701 28.1562 53.6535 26.0184 51.4467C22.9189 48.2593 19.8103 45.7675 19.5253 41.0599C19.4662 40.0793 22.2422 30.5458 23.5759 31.7522C24.8021 32.87 26.3609 33.5468 28.0487 33.3899C29.6962 33.233 31.2558 32.2918 32.1485 30.8989C35.8074 33.2232 40.0641 34.6062 44.389 34.9002C48.8223 35.2041 52.3629 32.291 56.5802 31.2225C67.2709 28.5254 76.3436 38.2741 80.9436 46.9058C82.9936 50.77 84.3667 55.6156 84.7979 59.9405C85.248 64.4132 85.0517 68.5713 86.994 72.5439Z"
    fill="white" />
  <path
    d="M75.3498 42.8421C81.1366 46.4361 75.078 64.6341 74.2156 69.984C73.9429 71.675 73.6612 73.3964 72.8966 74.929C72.132 76.4615 70.7958 77.8051 69.1162 78.1443C66.0381 78.766 63.4181 76.004 61.4947 73.5221C58.4617 69.6095 55.2759 65.2435 55.4747 60.2969C55.6931 54.8657 59.8948 50.54 63.8263 46.7859C65.4139 45.2698 67.04 43.7275 69.0325 42.8068C71.0249 41.8853 73.4855 41.6841 75.3498 42.8421Z"
    fill="url(#paint1_linear_1_3944)" />
  <path
    d="M48.8725 39.4331C47.809 41.984 50.0765 43.8795 52.5634 43.4796C56.3241 42.8751 56.5023 37.9695 52.6964 37.3248C51.1475 37.062 49.477 37.9827 48.8725 39.4331Z"
    fill="url(#paint2_linear_1_3944)" />
  <path
    d="M28.4513 28.9961C28.485 28.831 28.4653 28.6749 28.6303 28.5205C28.8488 28.3169 29.1798 28.2618 29.4434 28.4154C29.6192 28.5181 29.7424 28.6314 29.8327 28.8154C30.0651 29.2901 29.8327 29.865 29.28 29.9389C28.7264 30.0145 28.3454 29.5184 28.4513 28.9961Z"
    fill="white" />
  <path
    d="M24.3388 29.9504C24.6945 28.8179 26.3978 28.1264 27.4499 28.629C27.7505 28.7727 27.7669 29.3057 27.4499 29.4445C27.0729 29.6096 26.6729 29.7032 26.3124 29.9061C25.9248 30.1237 25.6817 30.467 25.3186 30.7044C24.8349 31.0198 24.168 30.4949 24.3388 29.9504Z"
    fill="white" />
  <path
    d="M52.3282 38.1378C52.7972 38.0162 53.3466 38.155 53.556 38.6322C53.7351 39.0404 53.6759 39.5184 53.2595 39.7615C52.9433 39.9463 52.4407 39.8765 52.2099 39.5627C51.6293 39.2597 51.6153 38.3226 52.3282 38.1378Z"
    fill="white" />
  <defs>
    <linearGradient id="paint0_linear_1_3944" x1="51.0593" y1="0" x2="51.0593" y2="87.0307"
      gradientUnits="userSpaceOnUse">
      <stop stop-color="#F87537" />
      <stop offset="1" stop-color="#FBA81F" />
    </linearGradient>
    <linearGradient id="paint1_linear_1_3944" x1="66.6454" y1="42.0434" x2="66.6454" y2="78.233"
      gradientUnits="userSpaceOnUse">
      <stop stop-color="#F87537" />
      <stop offset="1" stop-color="#FBA81F" />
    </linearGradient>
    <linearGradient id="paint2_linear_1_3944" x1="52.036" y1="37.2801" x2="52.036" y2="43.533"
      gradientUnits="userSpaceOnUse">
      <stop stop-color="#F87537" />
      <stop offset="1" stop-color="#FBA81F" />
    </linearGradient>
  </defs>
</svg>