<svg width="101" height="97" viewBox="0 0 101 97" fill="none" xmlns="http://www.w3.org/2000/svg">
  <g clip-path="url(#clip0_1_3915)">
    <path
      d="M50.8227 56.0174C50.8794 56.0511 50.9367 56.0821 50.9923 56.1105C51.3639 56.2971 51.7856 56.3595 52.1953 56.2886C52.605 56.2177 52.9812 56.0172 53.2686 55.7165C53.2705 55.7137 53.2727 55.7111 53.275 55.7085C54.1095 54.8237 54.4717 53.5862 54.5776 52.3765C54.7605 50.2109 54.2145 48.0462 53.0262 46.2269C52.4865 45.4074 51.7926 44.6494 50.8907 44.2614C49.9887 43.8733 48.852 43.9252 48.1207 44.5825C47.4589 45.1761 47.246 46.1187 47.1733 47.0019C46.9611 49.7484 47.7589 52.4779 49.4169 54.6771C49.8127 55.1941 50.2626 55.6871 50.8227 56.0174Z"
      fill="url(#paint0_linear_1_3915)" />
    <path
      d="M41.1847 54.1996C41.7298 54.6514 42.3252 55.0651 42.9992 55.2808C43.0682 55.3028 43.134 55.3204 43.202 55.3344C43.6411 55.4431 44.1036 55.4076 44.521 55.2333C44.9385 55.0589 45.2889 54.7549 45.5205 54.3661C45.523 54.3634 45.5247 54.3601 45.5253 54.3564C46.1977 53.2163 46.2828 51.8161 46.1036 50.5025C45.7732 48.1634 44.6707 46.002 42.9714 44.362C42.2022 43.6217 41.2815 42.9858 40.2314 42.7931C39.1813 42.6004 37.9872 42.9291 37.3694 43.8037C36.8119 44.5922 36.8135 45.6434 36.9494 46.5994C37.3886 49.5645 38.8946 52.2671 41.1847 54.1996Z"
      fill="url(#paint1_linear_1_3915)" />
    <path
      d="M39.8041 57.948C39.8041 57.8763 39.8041 57.8062 39.8041 57.7372C39.7725 57.029 39.5291 56.3455 39.2296 55.7032C37.9596 52.9882 35.7416 50.8313 32.993 49.6386C32.1055 49.2586 31.0913 48.9867 30.1856 49.3175C29.1836 49.6884 28.5545 50.7557 28.4684 51.8209C28.3822 52.8861 28.7583 53.9405 29.2708 54.8772C30.4136 56.9464 32.2159 58.573 34.3903 59.4976C35.6095 60.0115 36.9838 60.2914 38.2559 59.9403C38.2613 59.9403 38.2656 59.936 38.2688 59.9365C38.7038 59.8133 39.0877 59.5536 39.3641 59.1956C39.6405 58.8376 39.7947 58.4003 39.8041 57.948Z"
      fill="url(#paint2_linear_1_3915)" />
    <path
      d="M54.4875 58.8858C51.809 57.4406 47.7385 56.6538 44.7342 57.098C43.9429 57.216 43.1946 57.5333 42.5597 58.0202C41.9247 58.5071 41.424 59.1476 41.1045 59.8814C39.8982 62.6696 39.6007 66.8061 40.302 69.7677C40.6931 71.4196 41.3875 73.0692 42.6682 74.1804C43.9488 75.2916 45.9223 75.7257 47.3843 74.865C49.3102 73.7319 49.5242 71.0497 51.427 69.5873C53.3298 68.125 55.9741 68.618 57.5694 67.0502C58.7805 65.8619 58.872 63.8445 58.1311 62.3158C57.3902 60.7871 55.9779 59.693 54.4875 58.8858Z"
      fill="url(#paint3_linear_1_3915)" />
    <path
      d="M37.5536 63.7797C35.8622 61.606 33.4344 60.1265 30.728 59.6202C29.8539 59.4596 28.8905 59.4238 28.1463 59.9077C27.3246 60.4429 26.9801 61.5295 27.1187 62.5015C27.2572 63.4736 27.8141 64.3402 28.463 65.0751C29.9102 66.695 31.8577 67.7835 33.995 68.1673C35.1928 68.3814 36.4799 68.3504 37.5487 67.7749C37.553 67.7717 37.5584 67.7712 37.56 67.7696C37.9247 67.5699 38.2157 67.2582 38.3902 66.8806C38.5647 66.503 38.6135 66.0793 38.5293 65.6719C38.517 65.6109 38.501 65.5488 38.4838 65.4851C38.3111 64.8588 37.9532 64.2957 37.5536 63.7797Z"
      fill="url(#paint4_linear_1_3915)" />
    <path
      d="M79.6382 41.2891C79.3242 41.8613 79.0556 42.4725 78.9813 43.1186C78.9727 43.1844 78.9679 43.2487 78.9642 43.3113C78.9442 43.7271 79.0581 44.1383 79.2893 44.4844C79.5204 44.8306 79.8565 45.0933 80.2481 45.2339C80.2481 45.2339 80.2561 45.2339 80.2582 45.2339C81.4046 45.6397 82.6821 45.47 83.8307 45.0771C85.8838 44.3672 87.6408 42.9909 88.8223 41.167C89.352 40.3416 89.7644 39.4006 89.7532 38.4174C89.7419 37.4341 89.2353 36.416 88.3398 36.0124C87.5299 35.6474 86.5819 35.8347 85.7453 36.1254C83.1484 37.0439 80.9765 38.8803 79.6382 41.2891Z"
      fill="url(#paint5_linear_1_3915)" />
    <path
      d="M84.6943 25.8649C83.7485 25.6744 82.7883 26.1015 81.9698 26.6143C79.4376 28.2168 77.5777 30.6897 76.7395 33.5679C76.5469 34.2493 76.4105 34.9596 76.486 35.6661C76.494 35.7378 76.5042 35.8053 76.517 35.8738C76.5953 36.3197 76.8149 36.7285 77.1433 37.0399C77.4717 37.3514 77.8915 37.5489 78.3407 37.6032C78.3442 37.604 78.3478 37.604 78.3514 37.6032C79.6657 37.7563 80.9796 37.2676 82.1046 36.5723C84.1105 35.3238 85.6412 33.4395 86.4527 31.2197C86.8181 30.2155 87.0257 29.1161 86.7769 28.0771C86.5282 27.0382 85.7466 26.0763 84.6943 25.8649Z"
      fill="url(#paint6_linear_1_3915)" />
    <path
      d="M73.7634 20.9656C72.755 21.3184 71.9445 22.0897 71.2962 22.9397C69.868 24.8229 69.1113 27.1303 69.1467 29.494C69.1708 30.8177 69.472 32.188 70.3081 33.2098C70.3113 33.2146 70.3156 33.2167 70.3161 33.22C70.6049 33.5679 70.9976 33.8139 71.4365 33.9219C71.8754 34.0299 72.3373 33.9942 72.7544 33.82C72.8202 33.7922 72.8844 33.7627 72.946 33.7327C73.5804 33.4169 74.1068 32.9175 74.5738 32.3823C76.5407 30.1211 77.6135 27.2186 77.5905 24.2211C77.5787 23.2576 77.4166 22.2171 76.7463 21.5228C76.0016 20.7569 74.7718 20.6129 73.7634 20.9656Z"
      fill="url(#paint7_linear_1_3915)" />
    <path
      d="M71.6293 53.7607C73.2059 54.388 75.0868 53.6536 76.1834 52.3578C77.2801 51.0619 77.7091 49.3239 77.8418 47.6335C78.0793 44.5975 77.1463 40.5552 75.5265 37.9865C75.0985 37.3104 74.5057 36.7542 73.8039 36.3703C73.102 35.9864 72.3142 35.7874 71.5143 35.7919C68.4774 35.8171 64.577 37.22 62.1526 39.0618C60.8013 40.0885 59.5746 41.3918 59.0782 43.0131C58.5817 44.6344 58.9835 46.6165 60.3621 47.6052C62.1772 48.9096 64.715 48.0184 66.8211 49.1665C68.9273 50.3147 69.551 52.9369 71.6293 53.7607Z"
      fill="url(#paint8_linear_1_3915)" />
    <path
      d="M62.8613 35.7357C62.8656 35.7357 62.8688 35.7427 62.8709 35.7437C63.2012 35.9964 63.6038 36.1365 64.0195 36.1432C64.4352 36.15 64.8421 36.0231 65.1803 35.7812C65.2338 35.7453 65.2809 35.7057 65.3323 35.664C65.8351 35.2524 66.2042 34.6967 66.514 34.1224C67.8156 31.6948 68.1846 28.8746 67.5513 26.1936C67.3432 25.3291 66.9869 24.4331 66.2433 23.9455C65.4205 23.4102 64.2891 23.5354 63.4567 24.0563C62.6243 24.5771 62.0567 25.4346 61.6491 26.3279C60.7535 28.3085 60.5464 30.532 61.0606 32.644C61.3527 33.8253 61.9027 34.9911 62.8613 35.7357Z"
      fill="url(#paint9_linear_1_3915)" />
    <path
      d="M100.458 27.5446C100.215 21.5801 98.4433 15.4203 94.7633 10.6131C90.0263 4.38533 82.4106 0.366038 74.4986 0.906654C68.1359 1.21282 62.292 3.84043 57.778 8.31791C55.6503 10.4355 53.8314 12.8425 52.375 15.468C52.2323 15.301 52.088 15.135 51.9422 14.9702C47.44 9.91406 41.9096 5.45746 35.3585 3.41329C25.1409 0.201713 12.5298 2.24374 6.08784 11.476C5.67375 12.0635 5.28987 12.6719 4.93768 13.2985C1.6814 19.0259 0.209197 25.6893 0.54087 32.2522C1.91571 59.9515 31.8551 88.6759 57.1174 96.8585C39.6521 89.1041 23.0545 73.6099 13.3884 57.1955C6.251 45.0846 1.81674 29.3891 9.21038 16.4261C10.2519 14.5147 11.6599 12.8002 13.3798 11.4626C19.3553 6.81489 27.8312 6.6313 34.7578 9.12348C40.9708 11.462 46.4305 16.6289 50.3598 21.8991C50.4133 21.9618 53.6717 26.6384 53.814 26.8396L55.6328 21.6444L55.6863 21.4875L55.7612 21.2841C56.1585 20.2599 56.6218 19.2625 57.1484 18.2984C60.2672 12.4839 65.4402 7.78853 72.0352 6.50872C73.2605 6.26691 74.504 6.12833 75.7526 6.09443C82.2742 5.83375 88.553 9.69354 92.1372 15.0553C96.128 21.0845 96.9294 28.7018 96.1087 35.7748C93.8384 53.2988 80.7715 73.263 68.544 85.7304C72.0485 82.8244 75.3235 79.6134 78.3803 76.2321C87.956 65.4846 96.8593 51.7047 99.7347 37.3961C100.348 34.1503 100.591 30.8452 100.458 27.5446Z"
      fill="url(#paint10_linear_1_3915)" />
  </g>
  <defs>
    <linearGradient id="paint0_linear_1_3915" x1="50.8759" y1="44.0173" x2="50.8759" y2="56.3171"
      gradientUnits="userSpaceOnUse">
      <stop stop-color="#F87537" />
      <stop offset="1" stop-color="#FBA81F" />
    </linearGradient>
    <linearGradient id="paint1_linear_1_3915" x1="41.5295" y1="42.7399" x2="41.5295" y2="55.3961"
      gradientUnits="userSpaceOnUse">
      <stop stop-color="#F87537" />
      <stop offset="1" stop-color="#FBA81F" />
    </linearGradient>
    <linearGradient id="paint2_linear_1_3915" x1="34.1301" y1="49.1688" x2="34.1301" y2="60.0968"
      gradientUnits="userSpaceOnUse">
      <stop stop-color="#F87537" />
      <stop offset="1" stop-color="#FBA81F" />
    </linearGradient>
    <linearGradient id="paint3_linear_1_3915" x1="49.2658" y1="56.9742" x2="49.2658" y2="75.32"
      gradientUnits="userSpaceOnUse">
      <stop stop-color="#F87537" />
      <stop offset="1" stop-color="#FBA81F" />
    </linearGradient>
    <linearGradient id="paint4_linear_1_3915" x1="32.8292" y1="59.5126" x2="32.8292" y2="68.2893"
      gradientUnits="userSpaceOnUse">
      <stop stop-color="#F87537" />
      <stop offset="1" stop-color="#FBA81F" />
    </linearGradient>
    <linearGradient id="paint5_linear_1_3915" x1="84.3577" y1="35.8107" x2="84.3577" y2="45.4672"
      gradientUnits="userSpaceOnUse">
      <stop stop-color="#F87537" />
      <stop offset="1" stop-color="#FBA81F" />
    </linearGradient>
    <linearGradient id="paint6_linear_1_3915" x1="81.6753" y1="25.8186" x2="81.6753" y2="37.6314"
      gradientUnits="userSpaceOnUse">
      <stop stop-color="#F87537" />
      <stop offset="1" stop-color="#FBA81F" />
    </linearGradient>
    <linearGradient id="paint7_linear_1_3915" x1="73.3682" y1="20.783" x2="73.3682" y2="33.9831"
      gradientUnits="userSpaceOnUse">
      <stop stop-color="#F87537" />
      <stop offset="1" stop-color="#FBA81F" />
    </linearGradient>
    <linearGradient id="paint8_linear_1_3915" x1="68.3762" y1="35.7918" x2="68.3762" y2="53.9884"
      gradientUnits="userSpaceOnUse">
      <stop stop-color="#F87537" />
      <stop offset="1" stop-color="#FBA81F" />
    </linearGradient>
    <linearGradient id="paint9_linear_1_3915" x1="64.3189" y1="23.5999" x2="64.3189" y2="36.1435"
      gradientUnits="userSpaceOnUse">
      <stop stop-color="#F87537" />
      <stop offset="1" stop-color="#FBA81F" />
    </linearGradient>
    <linearGradient id="paint10_linear_1_3915" x1="50.4942" y1="0.858082" x2="50.4942" y2="96.8585"
      gradientUnits="userSpaceOnUse">
      <stop stop-color="#F87537" />
      <stop offset="1" stop-color="#FBA81F" />
    </linearGradient>
    <clipPath id="clip0_1_3915">
      <rect width="100" height="96" fill="white" transform="translate(0.493164 0.857941)" />
    </clipPath>
  </defs>
</svg>